HIERARCHY
ROOT Hips
{
    OFFSET   0.000000   0.000000   0.000000
    CHANNELS 6 Xposition Yposition Zposition Zrotation Xrotation Yrotation
    JOINT Chest
    {
        OFFSET   0.000000   8.007230   0.000000
        CHANNELS 3 Zrotation Xrotation Yrotation
        JOINT Chest2
        {
            OFFSET   0.000000  22.077100   0.000000
            CHANNELS 3 Zrotation Xrotation Yrotation
            JOINT Neck
            {
                OFFSET   0.000000  23.254700   0.000000
                CHANNELS 3 Zrotation Xrotation Yrotation
                JOINT Head
                {
                    OFFSET   0.000010  14.370000   1.956610
                    CHANNELS 3 Zrotation Xrotation Yrotation
                    End Site
                    {
                        OFFSET   0.000000  19.566000   0.000000
                    }
                }
            }
            JOINT LeftCollar
            {
                OFFSET   3.911900  19.017000  -0.467063
                CHANNELS 3 Zrotation Xrotation Yrotation
                JOINT LeftShoulder
                {
                    OFFSET  10.383700   0.000000   0.000000
                    CHANNELS 3 Zrotation Xrotation Yrotation
                    JOINT LeftElbow
                    {
                        OFFSET  26.662100   0.001671   0.000522
                        CHANNELS 3 Zrotation Xrotation Yrotation
                        JOINT LeftWrist
                        {
                            OFFSET  28.869000   0.000037  -0.000114
                            CHANNELS 3 Zrotation Xrotation Yrotation
                            JOINT LeftFinger0
                            {
                                OFFSET   2.044650  -2.323450   3.252850
                                CHANNELS 3 Zrotation Xrotation Yrotation
                                JOINT LeftFinger01
                                {
                                    OFFSET   3.088140   0.000000   0.000000
                                    CHANNELS 3 Zrotation Xrotation Yrotation
                                    JOINT LeftFinger02
                                    {
                                        OFFSET   2.639460   0.000000   0.000000
                                        CHANNELS 3 Zrotation Xrotation Yrotation
                                        End Site
                                        {
                                            OFFSET   2.582190   0.000000   0.000000
                                        }
                                    }
                                }
                            }
                            JOINT LeftFinger1
                            {
                                OFFSET   8.364480   0.000000   3.252850
                                CHANNELS 3 Zrotation Xrotation Yrotation
                                JOINT LeftFinger11
                                {
                                    OFFSET   4.646930   0.000000   0.000000
                                    CHANNELS 3 Zrotation Xrotation Yrotation
                                    JOINT LeftFinger12
                                    {
                                        OFFSET   2.323470   0.000000   0.000000
                                        CHANNELS 3 Zrotation Xrotation Yrotation
                                        End Site
                                        {
                                            OFFSET   2.273050   0.000000   0.000000
                                        }
                                    }
                                }
                            }
                            JOINT LeftFinger2
                            {
                                OFFSET   8.364490   0.000016   1.078090
                                CHANNELS 3 Zrotation Xrotation Yrotation
                                JOINT LeftFinger21
                                {
                                    OFFSET   5.111620   0.000000   0.000000
                                    CHANNELS 3 Zrotation Xrotation Yrotation
                                    JOINT LeftFinger22
                                    {
                                        OFFSET   2.788150   0.000013   0.000000
                                        CHANNELS 3 Zrotation Xrotation Yrotation
                                        End Site
                                        {
                                            OFFSET   2.727660   0.000000   0.000000
                                        }
                                    }
                                }
                            }
                            JOINT LeftFinger3
                            {
                                OFFSET   7.899780   0.000016  -1.078090
                                CHANNELS 3 Zrotation Xrotation Yrotation
                                JOINT LeftFinger31
                                {
                                    OFFSET   4.646930   0.000000   0.000000
                                    CHANNELS 3 Zrotation Xrotation Yrotation
                                    JOINT LeftFinger32
                                    {
                                        OFFSET   2.323470   0.000000   0.000000
                                        CHANNELS 3 Zrotation Xrotation Yrotation
                                        End Site
                                        {
                                            OFFSET   2.273050   0.000000   0.000000
                                        }
                                    }
                                }
                            }
                            JOINT LeftFinger4
                            {
                                OFFSET   7.435080   0.000000  -3.252850
                                CHANNELS 3 Zrotation Xrotation Yrotation
                                JOINT LeftFinger41
                                {
                                    OFFSET   3.717550   0.000000   0.000000
                                    CHANNELS 3 Zrotation Xrotation Yrotation
                                    JOINT LeftFinger42
                                    {
                                        OFFSET   1.858760   0.000000   0.000000
                                        CHANNELS 3 Zrotation Xrotation Yrotation
                                        End Site
                                        {
                                            OFFSET   1.818440   0.000000   0.000000
                                        }
                                    }
                                }
                            }
                        }
                    }
                }
            }
            JOINT RightCollar
            {
                OFFSET  -3.911900  19.017000  -0.467064
                CHANNELS 3 Zrotation Xrotation Yrotation
                JOINT RightShoulder
                {
                    OFFSET -10.383700   0.000000   0.000000
                    CHANNELS 3 Zrotation Xrotation Yrotation
                    JOINT RightElbow
                    {
                        OFFSET -26.662100   0.001633   0.000260
                        CHANNELS 3 Zrotation Xrotation Yrotation
                        JOINT RightWrist
                        {
                            OFFSET -28.869000  -0.000045  -0.000080
                            CHANNELS 3 Zrotation Xrotation Yrotation
                            JOINT RightFinger0
                            {
                                OFFSET  -2.044660  -2.323490   3.252850
                                CHANNELS 3 Zrotation Xrotation Yrotation
                                JOINT RightFinger01
                                {
                                    OFFSET  -3.088140   0.000000   0.000000
                                    CHANNELS 3 Zrotation Xrotation Yrotation
                                    JOINT RightFinger02
                                    {
                                        OFFSET  -2.639450   0.000000   0.000000
                                        CHANNELS 3 Zrotation Xrotation Yrotation
                                        End Site
                                        {
                                            OFFSET  -2.582190   0.000000   0.000000
                                        }
                                    }
                                }
                            }
                            JOINT RightFinger1
                            {
                                OFFSET  -8.364480   0.000000   3.252850
                                CHANNELS 3 Zrotation Xrotation Yrotation
                                JOINT RightFinger11
                                {
                                    OFFSET  -4.646920   0.000000   0.000000
                                    CHANNELS 3 Zrotation Xrotation Yrotation
                                    JOINT RightFinger12
                                    {
                                        OFFSET  -2.323470   0.000000   0.000000
                                        CHANNELS 3 Zrotation Xrotation Yrotation
                                        End Site
                                        {
                                            OFFSET  -2.273050   0.000000   0.000000
                                        }
                                    }
                                }
                            }
                            JOINT RightFinger2
                            {
                                OFFSET  -8.364480   0.000000   1.078090
                                CHANNELS 3 Zrotation Xrotation Yrotation
                                JOINT RightFinger21
                                {
                                    OFFSET  -5.111610   0.000000   0.000000
                                    CHANNELS 3 Zrotation Xrotation Yrotation
                                    JOINT RightFinger22
                                    {
                                        OFFSET  -2.788160   0.000000   0.000000
                                        CHANNELS 3 Zrotation Xrotation Yrotation
                                        End Site
                                        {
                                            OFFSET  -2.727660   0.000000   0.000000
                                        }
                                    }
                                }
                            }
                            JOINT RightFinger3
                            {
                                OFFSET  -7.899780   0.000000  -1.078090
                                CHANNELS 3 Zrotation Xrotation Yrotation
                                JOINT RightFinger31
                                {
                                    OFFSET  -4.646930   0.000000   0.000000
                                    CHANNELS 3 Zrotation Xrotation Yrotation
                                    JOINT RightFinger32
                                    {
                                        OFFSET  -2.323470   0.000000   0.000000
                                        CHANNELS 3 Zrotation Xrotation Yrotation
                                        End Site
                                        {
                                            OFFSET  -2.273050   0.000000   0.000000
                                        }
                                    }
                                }
                            }
                            JOINT RightFinger4
                            {
                                OFFSET  -7.435090   0.000000  -3.252850
                                CHANNELS 3 Zrotation Xrotation Yrotation
                                JOINT RightFinger41
                                {
                                    OFFSET  -3.717550   0.000000   0.000000
                                    CHANNELS 3 Zrotation Xrotation Yrotation
                                    JOINT RightFinger42
                                    {
                                        OFFSET  -1.858760   0.000000   0.000000
                                        CHANNELS 3 Zrotation Xrotation Yrotation
                                        End Site
                                        {
                                            OFFSET  -1.818440   0.000000   0.000000
                                        }
                                    }
                                }
                            }
                        }
                    }
                }
            }
        }
    }
    JOINT LeftHip
    {
        OFFSET   9.782990   0.000000   0.000000
        CHANNELS 3 Zrotation Xrotation Yrotation
        JOINT LeftKnee
        {
            OFFSET  -0.000063 -41.789100   0.001657
            CHANNELS 3 Zrotation Xrotation Yrotation
            JOINT LeftAnkle
            {
                OFFSET   0.000078 -41.133200  -0.000113
                CHANNELS 3 Zrotation Xrotation Yrotation
                JOINT LeftToe
                {
                    OFFSET   0.000000  -6.358970  14.674500
                    CHANNELS 3 Zrotation Xrotation Yrotation
                    End Site
                    {
                        OFFSET   0.000000   0.000000   3.913200
                    }
                }
            }
        }
    }
    JOINT RightHip
    {
        OFFSET  -9.782990   0.000000   0.000000
        CHANNELS 3 Zrotation Xrotation Yrotation
        JOINT RightKnee
        {
            OFFSET   0.000053 -41.789200   0.000277
            CHANNELS 3 Zrotation Xrotation Yrotation
            JOINT RightAnkle
            {
                OFFSET   0.000030 -41.133200  -0.000150
                CHANNELS 3 Zrotation Xrotation Yrotation
                JOINT RightToe
                {
                    OFFSET   0.000000  -6.358960  14.674500
                    CHANNELS 3 Zrotation Xrotation Yrotation
                    End Site
                    {
                        OFFSET   0.000000   0.000000   3.913200
                    }
                }
            }
        }
    }
}
MOTION
Frames: 4
Frame Time:   0.016667
 -0.809501  89.586100  -4.155260  -4.254850  -9.166120  -5.279220   0.810736   6.036270   1.084520   1.518480  12.086400   2.100150   0.227531  -1.676150   0.010347   0.375166  -3.398480   3.084600  -5.139330  -1.939230   0.440787 -74.245600  17.135500  -3.631150  -0.383367  -0.275593 -17.636100  12.374100  -2.176270   3.164530  38.586600  31.222600 -53.828800 -32.783000   0.000000   0.000000 -11.390600   0.001540   0.000000 -32.410800   4.303840  -6.740960 -26.721300   0.008197   0.001561 -18.704900   0.011869   0.000459 -28.820400  -1.328000   2.411970 -43.272500   0.000000   0.000000 -28.819500  -0.000414  -0.000000 -28.731600  -1.324360   2.413990 -40.630700   0.001514  -0.000783 -27.060100  -0.004580  -0.000288 -35.246800  -1.589680   2.248160 -52.917100   0.000435  -0.001194 -35.242800   0.000727   0.000151  11.256300   0.346933   8.811130  69.239800  12.340600  -0.830677  -3.852520  -3.739220  16.533900 -17.880400   0.735083   6.218310 -36.464300  35.177100  64.961100  37.933000  -0.001225  -0.000062  14.271700  -0.002638  -0.007572  35.013600  10.554300  14.657100  29.761600  -0.000396  -0.001270  20.833100  -0.000605  -0.000721  39.661500   4.763140   5.718580  54.326600   0.001461  -0.004866  37.249800   0.003278   0.000300  42.339500   2.607410   2.853630  54.428200  -0.004269  -0.002991  37.980500   0.001881  -0.005685  54.433400  -6.345780  -4.517480  82.026000   0.003720   0.006788  54.629300   0.001249  -0.002935   3.386940  10.763000   4.875550   0.916099   0.066065   3.751880  -1.446340  -2.171530   3.919430  -0.000000   0.000000   0.000000   5.297770   5.725450   1.310710  -2.832580   6.997860  -6.266640   1.302640  -5.536150   5.178410  -0.000000   0.000000   0.000000
 -0.800104  89.586100  -4.146100  -4.257930  -9.177050  -5.285620   0.811651   6.052500   1.081860   1.520360  12.118800   2.094560   0.221338  -1.683800   0.010350   0.366074  -3.414140   3.109580  -5.139160  -1.951260   0.443933 -74.247700  17.176800  -3.650560  -0.405008  -0.310172 -17.566300  12.357200  -2.147740   3.162990  38.568300  31.191900 -53.858100 -32.783000   0.000000   0.000000 -11.391000   0.001539   0.000030 -32.407000   4.319570  -6.766900 -26.721300   0.008202   0.001567 -18.704900   0.011869   0.000459 -28.835900  -1.312320   2.382100 -43.294800   0.000000   0.000000 -28.834400  -0.000417   0.000000 -28.733000  -1.308150   2.384410 -40.631000   0.001514  -0.000785 -27.060300  -0.004580  -0.000287 -35.267300  -1.570920   2.220110 -52.946700   0.000435  -0.001194 -35.262500   0.000726   0.000147  11.249200   0.340725   8.819530  69.228000  12.356500  -0.823107  -3.848420  -3.759860  16.559300 -17.837900   0.706089   6.242640 -36.483400  35.212000  65.009700  37.925100  -0.001209  -0.000006  14.263600  -0.002631  -0.007570  35.002300  10.548300  14.653000  29.751300  -0.000412  -0.001292  20.825800  -0.000619  -0.000733  39.703100   4.763250   5.710700  54.326500   0.001462  -0.004866  37.262400   0.003253   0.000315  42.316900   2.607400   2.857500  54.428200  -0.004275  -0.002992  37.974200   0.001873  -0.005667  54.420000  -6.340090  -4.517360  82.005600   0.003716   0.006786  54.615700   0.001237  -0.002916   3.384090  10.799300   4.876180   0.911684   0.033313   3.751990  -1.439720  -2.159820   3.919600   0.000000   0.000000  -0.000000   5.297640   5.735820   1.310930  -2.831760   7.005330  -6.266740   1.307610  -5.540880   5.182210   0.000000   0.000000   0.000000
 -0.784641  89.586000  -4.130700  -4.262990  -9.197350  -5.294850   0.813417   6.080980   1.077370   1.523970  12.175700   2.085070   0.215146  -1.698040   0.010353   0.354777  -3.443150   3.146000  -5.138850  -1.969970   0.451159 -74.252400  17.244700  -3.676900  -0.440831  -0.361657 -17.496500  12.330800  -2.119230   3.152620  38.541500  31.148000 -53.909100 -32.783000   0.000000   0.000000 -11.391300   0.001538   0.000063 -32.400700   4.345650  -6.808630 -26.721300   0.008209   0.001573 -18.704900   0.011867   0.000463 -28.863000  -1.286600   2.332920 -43.333800   0.000000   0.000000 -28.860300  -0.000421  -0.000000 -28.735200  -1.281500   2.335750 -40.632800   0.001514  -0.000787 -27.061400  -0.004579  -0.000287 -35.308700  -1.540370   2.173760 -53.007000   0.000435  -0.001193 -35.302700   0.000725   0.000144  11.243000   0.328738   8.839280  69.205400  12.376000  -0.815547  -3.846890  -3.780080  16.605900 -17.777700   0.663570   6.276430 -36.516900  35.270800  65.083800  37.913000  -0.001167   0.000112  14.251600  -0.002614  -0.007560  34.980400  10.536000  14.645600  29.731200  -0.000442  -0.001349  20.811800  -0.000651  -0.000763  39.744600   4.763400   5.702810  54.326400   0.001464  -0.004864  37.275000   0.003194   0.000351  42.276500   2.607380   2.864440  54.428200  -0.004286  -0.002994  37.963000   0.001852  -0.005629  54.398800  -6.331140  -4.517160  81.973500   0.003705   0.006780  54.594300   0.001207  -0.002869   3.379850  10.852400   4.877340   0.905634   0.000561   3.752830  -1.432670  -2.148120   3.919760   0.000000   0.000000  -0.000000   5.297330   5.754120   1.311170  -2.830180   7.020220  -6.266910   1.314540  -5.545620   5.186020  -0.000000   0.000000   0.000000
 -0.772283  89.586000  -4.118250  -4.266960  -9.217850  -5.299700   0.815599   6.106890   1.072670   1.528540  12.227500   2.075100   0.215172  -1.712580   0.010330   0.353403  -3.472560   3.166680  -5.138490  -1.981760   0.462605 -74.261500  17.297600  -3.684950  -0.468273  -0.390561 -17.498100  12.310800  -2.121400   3.117090  38.529100  31.127500 -53.968600 -32.780700   0.000000   0.000000 -11.390200   0.001533   0.000067 -32.409800   4.366810  -6.838860 -26.730700   0.008211   0.001572 -18.711500   0.011863   0.000471 -28.893300  -1.265830   2.292340 -43.378100   0.000000   0.000000 -28.889800  -0.000425   0.000000 -28.737000  -1.259660   2.295740 -40.673700   0.001518  -0.000788 -27.088600  -0.004578  -0.000288 -35.371700  -1.516210   2.135050 -53.100100   0.000436  -0.001194 -35.364700   0.000727   0.000148  11.245700   0.320174   8.864330  69.183500  12.380300  -0.816100  -3.853380  -3.778670  16.656800 -17.750200   0.644914   6.288180 -36.549200  35.321800  65.126900  37.905600  -0.001104   0.000266  14.245500  -0.002592  -0.007534  34.948400  10.517800  14.638100  29.702800  -0.000474  -0.001445  20.791900  -0.000692  -0.000810  39.711900   4.763460   5.709040  54.326300   0.001460  -0.004859  37.265100   0.003107   0.000400  42.227700   2.608180   2.872810  54.428100  -0.004301  -0.003005  37.949500   0.001821  -0.005581  54.381400  -6.323800  -4.516940  81.947100   0.003687   0.006773  54.576800   0.001161  -0.002798   3.377350  10.876000   4.880800   0.902411   0.020606   3.756820  -1.431540  -2.160040   3.914550  -0.000000   0.000000   0.000000   5.296960   5.769660   1.310640  -2.833800   7.038700  -6.262220   1.317140  -5.545090   5.175830  -0.000000   0.000000   0.000000
